<?xml version="1.0" encoding="utf-8"?>
<!-- Generator: Adobe Illustrator 21.0.2, SVG Export Plug-In . SVG Version: 6.00 Build 0)  -->
<svg version="1.1" id="Calque_1" xmlns="http://www.w3.org/2000/svg" xmlns:xlink="http://www.w3.org/1999/xlink" x="0px" y="0px"
	 viewBox="0 0 100 125" style="enable-background:new 0 0 100 125;" xml:space="preserve">
<g>
	<path d="M48.7,45c-0.6,0-1,0.5-1,1c0,3.4,0,6.8,0,10.3c0,0.3,0.1,0.5,0.2,0.7c0,0,0.1,0.1,0.1,0.1c0,0,0,0,0.1,0.1
		c0.2,0.1,0.4,0.3,0.7,0.3c0.7,0,1.3,0,2,0c0.6,0,1-0.5,1-1c0-3.4,0-6.8,0-10.3c0-0.6-0.5-1-1-1C50,45,49.4,45,48.7,45z"/>
	<path d="M29.5,42.7c1.7-1.9,2.6-4,2.7-6.5c-0.1-2.5-1-4.6-2.7-6.5c-0.4-0.4-1.1-0.4-1.5,0c-3.5,3.8-3.5,9.2,0,13
		C28.4,43.1,29.1,43.1,29.5,42.7z"/>
	<path d="M71.4,42.7c1.7-1.9,2.6-4,2.7-6.5c-0.1-2.5-1-4.6-2.7-6.5c-0.4-0.4-1.1-0.4-1.5,0c-3.5,3.8-3.5,9.2,0,13
		C70.3,43.1,71,43.1,71.4,42.7z"/>
	<path d="M27.7,45c-0.6,0-1,0.5-1,1c0,3.4,0,6.8,0,10.3c0,0.3,0.1,0.5,0.2,0.7c0,0,0,0.1,0.1,0.1c0,0,0,0,0.1,0.1
		c0.2,0.1,0.4,0.3,0.7,0.3c0.7,0,1.4,0,2,0c0.6,0,1-0.5,1-1c0-3.4,0-6.8,0-10.3c0-0.6-0.5-1-1-1C29.1,45,28.4,45,27.7,45z"/>
	<path d="M50.4,42.7c1.7-1.9,2.6-4,2.7-6.5c-0.1-2.5-1-4.6-2.7-6.5c-0.4-0.4-1.1-0.4-1.5,0c-3.5,3.8-3.5,9.2,0,13
		C49.3,43.1,50,43.1,50.4,42.7z"/>
	<path d="M69.6,45c-0.6,0-1,0.5-1,1c0,3.4,0,6.8,0,10.3c0,0.3,0.1,0.5,0.3,0.7c0,0,0,0.1,0.1,0.1c0,0,0,0,0.1,0.1
		c0.2,0.2,0.4,0.3,0.7,0.3c0.7,0,1.4,0,2,0c0.6,0,1-0.5,1-1c0-3.4,0-6.8,0-10.3c0-0.6-0.5-1-1-1C71,45,70.3,45,69.6,45z"/>
	<path d="M22,83.7h55.3c0.6,0,2.9-0.3,2.9-3v-7.1H19.8v8.4l0-0.1C19.8,81.8,19.6,83.7,22,83.7z"/>
	<path d="M80.2,61.5c0-1.6-2.3-1.6-2.3-1.6H21.9c-0.5,0-2.1,0.2-2.1,2.1v8h60.5V61.5z"/>
	<path d="M91.1,87.2h-7.3H16.3H8.9c-1.2,0-2.1,1-2.1,2.1c0,1.2,1,2.1,2.1,2.1h0.7h80.1h1.3c1.2,0,2.1-1,2.1-2.1
		C93.2,88.1,92.2,87.2,91.1,87.2z"/>
	<path d="M16.4,96.6c0.4,0.5,1.3,1.3,3.1,1.3h61.2c0.7,0,1.8-0.2,2.3-1.2l0.9-1.7H15.5L16.4,96.6z"/>
</g>
</svg>
