<?xml version="1.0" encoding="utf-8"?>
<!-- Generator: Adobe Illustrator 21.0.2, SVG Export Plug-In . SVG Version: 6.00 Build 0)  -->
<svg version="1.1" id="Calque_1" xmlns="http://www.w3.org/2000/svg" xmlns:xlink="http://www.w3.org/1999/xlink" x="0px" y="0px"
	 viewBox="0 0 100 125" style="enable-background:new 0 0 100 125;" xml:space="preserve">
<path d="M50.3,82.6c0-14.5,11.8-26.3,26.4-26.3c6.6,0,12.6,2.4,17.3,6.5V40.3c0-2.9-2.3-5.2-5.2-5.2H68.6V32c0-5.3-4.3-9.5-9.5-9.5
	H38.4c-5.3,0-9.5,4.3-9.5,9.5v3.1h-20c-2.9,0-5.2,2.3-5.2,5.2v56.6c0,2.9,2.3,5.2,5.2,5.2h50C53.7,97.3,50.3,90.4,50.3,82.6z
	 M34.7,32c0-2,1.7-3.7,3.7-3.7h20.7c2,0,3.7,1.7,3.7,3.7v3.1H34.7V32z"/>
<path d="M56.3,81.7c-0.4,10.8,8.1,20.1,18.9,20.7h0.4c5.4,0.2,10.5-1.7,14.4-5.4c3.9-3.7,6.2-8.6,6.3-14
	c0.4-10.8-8.1-20.1-18.9-20.7H77C66,62,56.7,70.7,56.3,81.7z M90,82.8c-0.1,3.2-1.3,6.1-3.3,8.5l-15-21.8c1.6-0.6,3.3-0.9,5.1-0.8
	h0.3C84.5,69.1,90.3,75.5,90,82.8z M62.7,81.9c0.1-3.4,1.5-6.5,3.7-8.8L81.5,95c-1.7,0.7-3.6,1.1-5.6,1h-0.3
	C68.3,95.6,62.5,89.3,62.7,81.9z"/>
</svg>
