<?xml version="1.0" encoding="utf-8"?>
<!-- Generator: Adobe Illustrator 21.0.2, SVG Export Plug-In . SVG Version: 6.00 Build 0)  -->
<svg version="1.1" id="Calque_1" xmlns="http://www.w3.org/2000/svg" xmlns:xlink="http://www.w3.org/1999/xlink" x="0px" y="0px"
	 viewBox="0 0 100 125" style="enable-background:new 0 0 100 125;" xml:space="preserve">
<g>
	<path d="M86.4,41H63.1v-5.8c0-2.2-1.8-3.9-3.9-3.9H39.7c-2.2,0-3.9,1.8-3.9,3.9V41H12.4c-2.2,0-3.9,1.8-3.9,3.9v44.8
		c0,2.2,1.8,3.9,3.9,3.9h74c2.2,0,3.9-1.8,3.9-3.9V44.9C90.3,42.7,88.6,41,86.4,41z M38.1,35.2c0-0.9,0.7-1.6,1.6-1.6h19.5
		c0.9,0,1.6,0.7,1.6,1.6V41H38.1V35.2z"/>
</g>
</svg>
