<?xml version="1.0" encoding="utf-8"?>
<!-- Generator: Adobe Illustrator 21.0.2, SVG Export Plug-In . SVG Version: 6.00 Build 0)  -->
<svg version="1.1" id="Calque_1" xmlns="http://www.w3.org/2000/svg" xmlns:xlink="http://www.w3.org/1999/xlink" x="0px" y="0px"
	 viewBox="0 0 30 37.5" style="enable-background:new 0 0 30 37.5;" xml:space="preserve">
<g transform="translate(-150 -80)">
	<g>
		<path d="M179,97h-1v-3h-3v13h1v2h3v3h-1v-2h-3v-2h-1V87h-1v-2h-9v2h-1v25h-1V93h-1v-1h-5v1h-1v15h-1v2h-2v2h-1v-3h2v-2h1V96h-3v5
			h-1v11v1h30v-1v-8h-1V97z M156,95h5v1h-5V95z M156,97h5v1h-5V97z M156,99h5v1h-5V99z M156,101h5v1h-5V101z M156,103h5v1h-5V103z
			 M156,105h5v1h-5V105z M156,107h5v1h-5V107z M156,109h5v1h-5V109z M165,111h-1v-2h1V111z M165,107h-1v-2h1V107z M165,103h-1v-2h1
			V103z M165,99h-1v-2h1V99z M165,95h-1v-2h1V95z M165,91h-1v-2h1V91z M167,111h-1v-2h1V111z M167,107h-1v-2h1V107z M167,103h-1v-2
			h1V103z M167,99h-1v-2h1V99z M167,95h-1v-2h1V95z M167,91h-1v-2h1V91z M169,111h-1v-2h1V111z M169,107h-1v-2h1V107z M169,103h-1
			v-2h1V103z M169,99h-1v-2h1V99z M169,95h-1v-2h1V95z M169,91h-1v-2h1V91z M171,111h-1v-2h1V111z M171,107h-1v-2h1V107z M171,103
			h-1v-2h1V103z M171,99h-1v-2h1V99z M171,95h-1v-2h1V95z M171,91h-1v-2h1V91z M173,111h-1v-2h1V111z M173,107h-1v-2h1V107z
			 M173,103h-1v-2h1V103z M173,99h-1v-2h1V99z M173,95h-1v-2h1V95z M173,91h-1v-2h1V91z"/>
	</g>
</g>
</svg>
