<?xml version="1.0" encoding="utf-8"?>
<!-- Generator: Adobe Illustrator 21.0.2, SVG Export Plug-In . SVG Version: 6.00 Build 0)  -->
<svg version="1.1" id="Calque_1" xmlns="http://www.w3.org/2000/svg" xmlns:xlink="http://www.w3.org/1999/xlink" x="0px" y="0px"
	 viewBox="0 0 100 125" style="enable-background:new 0 0 100 125;" xml:space="preserve">
<g>
	<path d="M27.5,74.9c0-0.4,0-0.9,0-1.3c-6.8-0.3-12.7-1.9-16.7-4.3c-0.5,0.6-0.8,1.2-0.8,1.8c0,2.9,6.8,6.9,17.7,7.4
		C27.6,77.4,27.5,76.2,27.5,74.9z"/>
	<path d="M28.1,68.7c0.3-1.7,0.8-3.4,1.3-5c-7.6-0.1-14.2-1.7-18.6-4.3C10.3,60,10,60.7,10,61.2C10,64.1,17,68.2,28.1,68.7z"/>
	<path d="M30,58.7c0.6,0,1.1,0,1.7,0c1-1.9,2.2-3.6,3.6-5.2c-1.7,0.1-3.5,0.2-5.3,0.2c-7.9,0-14.7-1.6-19.2-4.3
		C10.3,50,10,50.6,10,51.2C10,54.3,17.8,58.7,30,58.7z"/>
	<path d="M30,43.7c-7.9,0-14.7-1.6-19.2-4.3C10.3,40,10,40.6,10,41.2c0,3.1,7.8,7.5,20,7.5c5,0,9.3-0.8,12.6-1.9
		c1.9-1.2,3.9-2.3,6-3.1c0.9-0.9,1.4-1.7,1.4-2.5c0-0.6-0.3-1.2-0.8-1.8C44.7,42.1,37.9,43.7,30,43.7z"/>
	<path d="M30,38.7c12.2,0,20-4.4,20-7.5s-7.8-7.5-20-7.5s-20,4.4-20,7.5S17.8,38.7,30,38.7z"/>
	<path d="M61.2,46.2c-15.9,0-28.8,12.9-28.8,28.8s13,28.7,28.8,28.7S90,90.8,90,74.9S77.1,46.2,61.2,46.2z M74.1,61.6
		c-0.7,1.2-2.3,1.5-3.4,0.8c-1.5-0.9-4-2.1-7-2.1h-0.1c-1,0-6.3,0.3-9.6,4.4c-1.1,1.3-1.7,2.8-2.1,4.2h17.3c1.4,0,2.5,1.1,2.5,2.5
		c0,1.4-1.1,2.5-2.5,2.5H51.5c0,0.3,0,0.7,0,1c0,0.5,0,1,0,1.5h15.8c1.4,0,2.5,1.1,2.5,2.5c0,1.4-1.1,2.5-2.5,2.5h-15
		c0.6,1.9,1.5,3.7,3.2,5.3c2.6,2.5,5.3,3.3,7.2,3.4c3.3,0.3,5.9-0.9,7.1-1.7c1.2-0.7,2.7-0.4,3.4,0.8c0.7,1.2,0.4,2.7-0.8,3.4
		c-1.6,1-4.7,2.5-8.8,2.5c-0.5,0-1,0-1.5-0.1c-2.6-0.2-6.6-1.3-10.2-4.9c-2.8-2.8-4.1-6-4.8-8.9h-4.4c-1.4,0-2.5-1.1-2.5-2.5
		c0-1.4,1.1-2.5,2.5-2.5h3.8c0-0.5,0-1,0-1.4c0-0.4,0-0.7,0-1.1h-3.7c-1.4,0-2.5-1.1-2.5-2.5c0-1.4,1.1-2.5,2.5-2.5h4
		c0.4-2.4,1.3-5,3.3-7.4c4.6-5.7,11.5-6.2,13.4-6.2c4.4,0,7.8,1.5,9.9,2.8C74.5,58.9,74.9,60.5,74.1,61.6z"/>
</g>
</svg>
