<?xml version="1.0" encoding="utf-8"?>
<!-- Generator: Adobe Illustrator 21.0.2, SVG Export Plug-In . SVG Version: 6.00 Build 0)  -->
<svg version="1.1" id="Calque_1" xmlns="http://www.w3.org/2000/svg" xmlns:xlink="http://www.w3.org/1999/xlink" x="0px" y="0px"
	 viewBox="0 0 100 125" style="enable-background:new 0 0 100 125;" xml:space="preserve">
<style type="text/css">
	.st0{fill:none;}
</style>
<rect x="5" y="5" class="st0" width="90" height="90"/>
<path d="M74,50c-1.6-3.7-3.8-7-6.7-9.9c-2.9-2.9-6.2-5.1-9.9-6.7c-3.8-1.6-7.9-2.4-12.1-2.4c-4.2,0-8.3,0.8-12.1,2.4
	c-3.7,1.6-7,3.8-9.9,6.7c-2.9,2.9-5.1,6.2-6.7,9.9c-1.6,3.8-2.4,7.9-2.4,12.1s0.8,8.3,2.4,12.1c1.6,3.7,3.8,7,6.7,9.9
	c2.9,2.9,6.2,5.1,9.9,6.7c2.2,0.9,4.5,1.6,6.9,2v8.7h-8.8c-0.3,0-0.5,0.2-0.5,0.5v9.4c0,0.3,0.2,0.5,0.5,0.5h8.8v8.8
	c0,0.3,0.2,0.5,0.5,0.5H50c0.3,0,0.5-0.2,0.5-0.5v-8.8h8.8c0.3,0,0.5-0.2,0.5-0.5V102c0-0.3-0.2-0.5-0.5-0.5h-8.8v-8.7
	c2.4-0.4,4.7-1.1,6.9-2c3.7-1.6,7-3.8,9.9-6.7c2.9-2.9,5.1-6.2,6.7-9.9c1.6-3.8,2.4-7.9,2.4-12.1C76.4,57.9,75.6,53.9,74,50z
	 M66.1,62.1c0,11.4-9.3,20.7-20.7,20.7c-11.4,0-20.7-9.3-20.7-20.7s9.3-20.7,20.7-20.7C56.8,41.4,66.1,50.7,66.1,62.1z"/>
<path d="M97.6,29.9V3.5c0-0.3-0.2-0.5-0.5-0.5H70.6c-0.1,0-0.3,0.1-0.3,0.1c-0.1,0.1-0.1,0.2-0.1,0.4v9.4c0,0.3,0.2,0.5,0.5,0.5
	l9.4,0l-6.3,6.3c-2-1.4-4.1-2.6-6.3-3.5c-3.7-1.5-7.7-2.3-11.7-2.3s-8,0.8-11.7,2.3c-3.9,1.6-7.3,3.9-10.3,6.8
	c-3,3-5.3,6.4-6.8,10.3c-1.5,3.7-2.3,7.7-2.3,11.7c0,4,0.8,8,2.3,11.7c1.6,3.9,3.9,7.3,6.8,10.3c3,3,6.4,5.3,10.3,6.8
	c3.7,1.5,7.7,2.3,11.7,2.3c4,0,8-0.8,11.7-2.3c3.9-1.6,7.3-3.9,10.3-6.8c3-3,5.3-6.4,6.8-10.3c1.5-3.7,2.3-7.7,2.3-11.7
	c0-4-0.8-8-2.3-11.7C83.5,31,82.3,28.9,81,27l6.3-6.3v9.3c0,0.3,0.2,0.5,0.5,0.5h9.4c0,0,0,0,0,0C97.4,30.4,97.6,30.2,97.6,29.9
	C97.6,29.9,97.6,29.9,97.6,29.9z M76.3,44.9c0,5.5-2.2,10.7-6.1,14.6c-3.9,3.9-9.1,6.1-14.6,6.1c0,0,0,0,0,0
	c-5.5,0-10.7-2.1-14.6-6.1c-8.1-8.1-8.1-21.2,0-29.3c3.9-3.9,9.1-6.1,14.6-6.1c5.5,0,10.7,2.2,14.6,6.1
	C74.1,34.2,76.3,39.4,76.3,44.9z"/>
</svg>
