<?xml version="1.0" encoding="utf-8"?>
<!-- Generator: Adobe Illustrator 21.0.2, SVG Export Plug-In . SVG Version: 6.00 Build 0)  -->
<svg version="1.1" id="Calque_1" xmlns="http://www.w3.org/2000/svg" xmlns:xlink="http://www.w3.org/1999/xlink" x="0px" y="0px"
	 viewBox="0 0 100 125" style="enable-background:new 0 0 100 125;" xml:space="preserve">
<path d="M93.2,38c-5.9,3.1-12.1,6.4-18.1,9.6c-2.3,1.3-4.7,2.5-7,3.7c-0.3,0.2-0.6,0.3-0.9,0.5l-1.3,0.7l0.6,1.3
	c0.2,0.5,0.6,1.3,1.2,2.2c-3.1,1-4.8,0-6.3-1.2c-2.7-2.1-5.7-2.6-8.5-1.7c-0.5,0.2-1,0.4-1.4,0.7c-1.5-1.1-3.2-1.7-5-1.5
	c-1.8,0.1-3.2,0.4-4.4,0.7c-0.2,0-0.3,0.1-0.5,0.1c-2.1,0.5-3.8,0.9-6.7,0.4c0.3-0.5,0.6-1,0.8-1.5l0.8-1.4l-1.4-0.7
	c-0.2-0.1-18.4-9.8-27.6-13.5l-2.1-0.8v36.9l1,0.4c1.2,0.5,2.8,1.1,4.3,1.7c3.7,1.4,7.8,3.1,9.5,3.9l1.4,0.7l1.1-2.2
	c0.7-1.4,1.4-2.9,2.2-4.3c1,0.7,2.1,1.5,3.2,2.3c-0.5,0.4-0.8,1-0.9,1.7c-0.2,1.1,0,2.2,0.5,3.1c0.6,0.9,1.5,1.6,2.5,2
	c0.3,0.1,0.6,0.1,0.9,0.1h0.1c0.1,0.9,0.4,1.9,1.1,2.6c0.9,0.8,2.6,1.3,3.6,1.5c0,0.1,0,0.2,0,0.3c0.2,0.7,0.6,1.3,0.9,1.8
	c0.3,0.4,0.6,0.8,1.1,1.2c0.8,0.6,1.8,0.7,2.6,0.8c0.1,0,0.2,0,0.3,0s0.3,0,0.4-0.1c0.1,0.2,0.2,0.4,0.4,0.6
	c0.3,0.3,0.6,0.6,0.9,0.9c0,0,0,0,0.1,0c0.2,0.1,0.4,0.3,0.6,0.4c0.1,0,0.2,0.1,0.3,0.1c0.2,0.1,0.3,0.2,0.5,0.2
	c0.3,0.1,0.6,0.2,0.9,0.3c0.5,0.1,1,0.2,1.5,0.2c1,0,2.1-0.3,3-0.7c0.6,0.4,1.4,0.8,2.3,0.8c0.6,0,1.3-0.2,2-0.7s1.1-1.3,1.2-2.2
	c0-0.1,0-0.3,0-0.4c0.2,0.2,0.3,0.3,0.5,0.4c1.2,0.8,3.2,0.7,4.2-0.3c0.5-0.5,0.9-1.2,1-2c1.1,0.6,2.2,0.6,3.4-0.2
	c0.7-0.5,1.2-1.3,1.3-2.2c0-0.3,0-0.5,0-0.8c0.2,0.1,0.4,0.1,0.6,0.2c0.1,0,0.1,0,0.2,0s0.3,0.1,0.4,0.1h0.1c0.2,0,0.3,0,0.4,0
	s0.1,0,0.2,0s0.2,0,0.2,0c0.1,0,0.1,0,0.2,0h0.1c0.5-0.1,0.9-0.3,1.3-0.5c0.7-0.4,1.1-1.2,1.2-2.2c0.1-0.6,0-1.2-0.1-1.8
	c2.6-2,5.5-3.8,8.4-5.3c1.6,2.8,2.9,5,3.4,5.8l0.7,1.1l1.2-0.5c3.2-1.2,7.3-2.2,10.5-2.9l1.2-0.3V36.9L93.2,38z M31.5,79.1
	c-0.1,0.2-0.2,0.4-0.3,0.5c-0.1,0.1-0.2,0.2-0.2,0.2s-0.1,0-0.3,0c-0.6-0.2-1.1-0.6-1.4-1.1S28.9,77.6,29,77
	c0.1-0.3,0.2-0.5,0.3-0.6h0.1c0.1,0,0.5,0.1,0.6,0.2l1.9,1.5C31.8,78.5,31.7,78.8,31.5,79.1z M36.9,82.1c-0.3,0.5-0.5,0.9-0.7,1.4
	L36,83.9c-0.8-0.2-1.9-0.6-2.4-1c-0.4-0.3-0.6-1.4-0.5-2.1c0.1-0.4,0.1-0.6,0.3-0.8l0.1-0.2c0.1-0.1,0.1-0.2,0.2-0.3
	c0.2-0.3,0.4-0.6,0.6-0.9c0.1-0.1,0.1-0.1,0.2-0.2c0.2-0.2,0.4-0.3,0.6-0.4c0.1,0,0.2-0.1,0.2-0.1c0.8-0.4,1.6-0.8,2.3-0.9
	c0.7,0,1.2,0.2,2,1.3c0.3,0.4,0.4,0.6,0.4,0.5c-0.1,0.3-0.6,0.7-1,1c-0.3,0.2-0.6,0.5-0.8,0.7l0,0c-0.2,0.2-0.5,0.5-0.7,0.8
	C37.3,81.5,37.1,81.8,36.9,82.1z M41.9,85.3C41.8,85.3,41.8,85.3,41.9,85.3c-0.1,0.1-0.1,0.2-0.2,0.3c-0.1,0.1-0.1,0.2-0.2,0.3
	c-0.1,0.2-0.3,0.5-0.4,0.8l0,0c-0.2,0.4-0.3,0.8-0.5,1.2c-0.5-0.1-1.1-0.1-1.4-0.4c-0.2-0.2-0.5-0.5-0.7-0.7
	c-0.3-0.4-0.5-0.7-0.6-1.1s0-0.9,0.2-1.4c0.1-0.3,0.3-0.6,0.5-0.9c0.2-0.2,0.3-0.5,0.5-0.7l0.1-0.1c0.2-0.3,0.4-0.5,0.7-0.8
	s0.6-0.6,0.9-0.8c0.1-0.1,0.3-0.2,0.5-0.3l0.1-0.1c0.2-0.1,0.4-0.2,0.7-0.3c0.2-0.1,0.4-0.1,0.6-0.1l0,0c0.1,0,0.3,0,0.4,0
	c0.5,0,0.7,0.1,1.1,0.4c0.4,0.4,0.7,1.2,0.5,1.5s-0.5,0.6-0.9,1c-0.3,0.3-0.6,0.5-0.9,0.9c0,0,0,0.1-0.1,0.1c0,0,0,0-0.1,0.1
	c-0.2,0.3-0.4,0.5-0.6,0.8C42,85.1,41.9,85.2,41.9,85.3z M46.9,88.9c0,0.5,0.3,1,0.4,1.2l0.2,0.3c-0.1,0-0.1,0-0.2,0
	c-0.7,0.2-1.4,0.2-2.1,0c-0.8-0.2-1.6-0.6-2-1.2s-0.6-1.3-0.4-1.9c0-0.1,0.1-0.2,0.1-0.2c0.2-0.3,0.3-0.6,0.5-0.9s0.4-0.5,0.6-0.8
	l0,0c0.2-0.3,0.5-0.5,0.8-0.7c0.6-0.3,0.9-0.5,1.3-0.5c0.2,0,0.4,0,0.6,0.1c0.6,0.4,1,0.9,1.1,1.4c0.1,0.8-0.3,1.5-0.6,1.9l-0.1,0.1
	c0,0,0,0.1-0.1,0.1C47.1,88.1,47,88.4,46.9,88.9L46.9,88.9z M63.5,80.5l-1-1.1c-0.1-0.2-0.3-0.3-0.4-0.5l-0.3-0.3
	c-0.1-0.1-0.1-0.2-0.2-0.2c-1.1-1.2-2-2.2-2.9-3.4c-0.4-0.4-1-0.5-1.4-0.1s-0.5,1-0.1,1.4c1.1,1.3,2.1,2.4,3,3.4
	c0.1,0.1,0.2,0.2,0.3,0.3l0.6,0.7c2,2.3,2.2,3.6,2.1,4.2c0,0.4-0.2,0.6-0.5,0.8c-0.9,0.7-2-0.2-4.7-3c-0.6-0.7-1.1-1.3-1.7-2
	c-0.3-0.4-0.9-1.1-1.4-1.6c-0.4-0.4-1-0.5-1.5-0.1c-0.4,0.4-0.5,1-0.1,1.4c0.3,0.4,0.7,0.9,0.9,1.1c0.6,0.8,1.3,1.6,2,2.4
	c0.1,0.1,0.1,0.1,0.2,0.2c0.3,0.3,0.6,0.6,0.8,1c0.4,0.5,1.7,2.1,0.7,3.1c-0.2,0.2-1.1,0.3-1.6,0c-0.8-0.6-2.7-2.6-3.9-3.9
	c-0.3-0.4-1-1.1-1.5-1.6c-0.4-0.4-1.1-0.4-1.5,0l0,0c-0.4,0.4-0.4,1-0.1,1.4c1.9,2.4,3.4,4.8,3.3,5.7c0,0.3-0.1,0.6-0.4,0.7
	c-0.7,0.6-1.3,0.3-2.4-0.5c-0.2-0.2-0.5-0.4-0.7-0.5l-0.3-0.4c0,0,0-0.1-0.1-0.1c0,0,0-0.1,0.1-0.1c0.8-1.1,1.1-2.3,0.9-3.4
	c-0.1-0.8-0.6-1.9-2-2.8l-0.1-0.1c-0.4-0.2-0.8-0.3-1.2-0.3c0.1-1.2-0.4-2.5-1.3-3.2c-0.9-0.8-1.6-1-2.9-0.9c-0.1,0-0.3,0-0.4,0.1
	l0,0c-0.1-0.6-0.5-1.1-0.7-1.4c-0.9-1.1-1.9-2.2-3.7-2l0,0c-1.2,0.1-2.2,0.6-3.1,1.1c-0.3,0.2-0.6,0.3-0.9,0.6
	c-0.2-0.2-0.4-0.3-0.6-0.5c-0.9-0.8-4.6-3.4-7.1-5.2c2.6-5.2,5.3-10.4,8.1-15.4c3.7,0.8,5.8,0.3,8.2-0.3c0,0,0,0,0.1,0
	c1.3-0.3,2.7-0.6,4.6-0.7c1-0.1,2.1,0.2,3.1,0.7l-0.2,0.1c-1.6,1.1-3.4,2.1-5.3,2.8c-0.8,0.3-1.8,0.7-2.4,1.6
	c-0.4,0.6-0.5,1.3-0.6,1.9c-0.4,2.1-0.6,3.6-1.6,5.8c-0.2,0.4-0.5,1.1-0.6,1.8L39,69.8l0.5,0.4c0.5,0.5,1.7,1,2.8,1.3l0,0l0,0
	c0.2,0.1,0.4,0.1,0.6,0.1H43c0.2,0,0.4,0,0.5,0c1.2-0.1,2.1-0.4,2.8-0.9c1.5-1,2.3-2.4,3-3.8c0.1-0.1,0.1-0.3,0.2-0.4
	c0.3-0.5,0.5-1,0.8-1.3c0.3-0.2,0.6-0.4,1-0.5l1.4-0.6c0.2,0.2,0.5,0.4,0.8,0.6c4.1,3.8,8.4,8.1,13.1,13.2c0.4,0.5,0.8,1,1.1,1.5
	c0.4,0.8,0.6,1.7,0.5,2.2c0,0.4-0.2,0.6-0.3,0.7C66.4,83.3,64.7,81.9,63.5,80.5z M69.2,78.2c-0.3-0.5-0.6-0.9-0.9-1.3l-0.1-0.1
	c0,0,0,0-0.1-0.1l0,0l0,0l-10.8-11l-1.7-1.6l-0.9-0.9c0,0-0.7-0.6-1-1l-0.5-0.5L52.5,62l-0.9,0.4l-1.1,0.4c-0.5,0.2-1,0.4-1.5,0.8
	c-0.7,0.5-1,1.3-1.3,1.9l-0.3,0.4c-0.7,1.3-1.3,2.4-2.4,3.1c-0.4,0.3-1.1,0.5-1.9,0.6c0,0-0.1,0-0.2,0c0,0,0,0-0.1,0s-0.1,0-0.2,0
	c0,0,0,0-0.1,0s-0.1,0-0.2-0.1c0,0,0,0-0.1,0s-0.2-0.1-0.3-0.1c-0.3-0.1-0.6-0.2-0.9-0.4c0.1-0.3,0.2-0.6,0.3-0.7
	c1.1-2.4,1.4-4.1,1.8-6.3c0.1-0.4,0.1-0.8,0.3-1.1c0.2-0.4,0.8-0.6,1.5-0.9c2-0.8,3.9-1.8,5.6-3l0.5-0.4c0,0,0.1,0,0.1-0.1
	c0.3-0.2,0.6-0.4,0.8-0.6c0.3-0.2,0.6-0.4,0.9-0.5c0.2-0.1,0.4-0.2,0.6-0.2c2.2-0.8,4.4-0.3,6.6,1.3c2,1.5,4.5,2.7,8.5,1.4
	c2.3,4.1,5.8,10.3,8.6,15.2C74.6,74.5,71.8,76.2,69.2,78.2z"/>
</svg>
