<?xml version="1.0" encoding="utf-8"?>
<!-- Generator: Adobe Illustrator 21.0.2, SVG Export Plug-In . SVG Version: 6.00 Build 0)  -->
<svg version="1.1" id="Calque_1" xmlns="http://www.w3.org/2000/svg" xmlns:xlink="http://www.w3.org/1999/xlink" x="0px" y="0px"
	 viewBox="0 0 100 125" style="enable-background:new 0 0 100 125;" xml:space="preserve">
<g>
	<path d="M15.1,52.5h-2.6H7.9c-1.6,0-2.9,1.3-2.9,2.9v10.4c0,1.6,1.3,2.9,2.9,2.9h0.7v15.2c0,1.2,1,2.2,2.2,2.2h3.4
		c1.2,0,2.2-1,2.2-2.2V70.7c-0.8-1.2-1.3-2.7-1.3-4.2C15.1,66.5,15.1,52.5,15.1,52.5z"/>
	<path d="M12.5,42.3c-2.5,0-4.5,2-4.5,4.5c0,0.8,0.2,1.6,0.6,2.2c0.8,1.4,2.2,2.3,3.9,2.3c1.1,0,2-0.4,2.8-1
		c0.3-1.3,0.9-2.4,1.7-3.4v-0.1C17,44.3,15,42.3,12.5,42.3z"/>
	<path d="M92.1,52.5h-4.6h-2.6v14c0,1.6-0.5,3-1.3,4.2v13.2c0,1.2,1,2.2,2.2,2.2h3.4c1.2,0,2.2-1,2.2-2.2V68.7h0.7
		c1.6,0,2.9-1.3,2.9-2.9V55.4C95,53.8,93.7,52.5,92.1,52.5z"/>
	<path d="M87.5,51.3c1.7,0,3.1-0.9,3.9-2.3c0.4-0.7,0.6-1.4,0.6-2.2c0-2.5-2-4.5-4.5-4.5s-4.5,2-4.5,4.5v0.1c0.8,1,1.4,2.1,1.7,3.4
		C85.5,50.9,86.4,51.3,87.5,51.3z"/>
	<path d="M33,48.3c0-0.2,0-0.3,0-0.5h-3.9h-6.5c-2.2,0-4,1.8-4,4v14.6c0,2.2,1.8,4,4,4h1v21.3c0,1.7,1.4,3.1,3.1,3.1h4.7
		c1.7,0,3.1-1.4,3.1-3.1V72.1c-1-1.4-1.6-3.2-1.6-5L33,48.3L33,48.3z"/>
	<path d="M29.1,33.5c-3.5,0-6.3,2.8-6.3,6.3c0,1.8,0.7,3.4,1.9,4.5c1.1,1.1,2.7,1.8,4.4,1.8c1.7,0,3.3-0.7,4.4-1.8
		c1.2-1.1,1.9-2.7,1.9-4.5C35.4,36.3,32.6,33.5,29.1,33.5z"/>
	<path d="M77.3,47.8h-6.5H67c0,0.2,0,0.3,0,0.5v18.8c0,1.9-0.6,3.6-1.6,5v19.6c0,1.7,1.4,3.1,3.1,3.1h4.7c1.7,0,3.1-1.4,3.1-3.1
		V70.5h1c2.2,0,4-1.8,4-4V51.9C81.4,49.6,79.6,47.8,77.3,47.8z"/>
	<path d="M58.3,43.1H50h-8.3c-2.9,0-5.2,2.3-5.2,5.2v18.8c0,2.9,2.3,5.2,5.2,5.2H43v27.4c0,2.2,1.8,4,4,4h6c2.2,0,4-1.8,4-4V72.3
		h1.3c2.9,0,5.2-2.3,5.2-5.2V48.3C63.5,45.5,61.2,43.1,58.3,43.1z"/>
	<path d="M45.6,39.6c1.3,0.8,2.8,1.3,4.4,1.3c1.6,0,3.1-0.5,4.4-1.3c2.2-1.4,3.7-3.9,3.7-6.8c0-4.5-3.6-8.1-8.1-8.1
		s-8.1,3.6-8.1,8.1C41.9,35.7,43.4,38.2,45.6,39.6z"/>
	<path d="M70.9,46.1c1.7,0,3.3-0.7,4.4-1.8c1.2-1.1,1.9-2.7,1.9-4.5c0-3.5-2.8-6.3-6.3-6.3s-6.3,2.8-6.3,6.3c0,1.8,0.7,3.4,1.9,4.5
		C67.6,45.4,69.2,46.1,70.9,46.1z"/>
</g>
</svg>
